<svg width="32" height="32" viewBox="0 0 32 32" fill="white"  xmlns="http://www.w3.org/2000/svg">
<path d="M1 5.5C1 4.83696 1.26339 4.20107 1.73223 3.73223C2.20107 3.26339 2.83696 3 3.5 3H7.5C8.16304 3 8.79893 3.26339 9.26777 3.73223C9.73661 4.20107 10 4.83696 10 5.5V10.5C10 11.163 9.73661 11.7989 9.26777 12.2678C8.79893 12.7366 8.16304 13 7.5 13H3.5C2.83696 13 2.20107 12.7366 1.73223 12.2678C1.26339 11.7989 1 11.163 1 10.5V5.5ZM13.036 11.778L10.9 10.304C10.9133 10.2107 10.92 10.1163 10.92 10.021V5.981C10.92 5.885 10.9133 5.79067 10.9 5.698L13.036 4.224C13.2236 4.09456 13.4429 4.01886 13.6704 4.00507C13.8979 3.99129 14.1248 4.03996 14.3266 4.14581C14.5284 4.25166 14.6975 4.41066 14.8154 4.60563C14.9334 4.8006 14.9959 5.02411 14.996 5.252V10.75C14.9959 10.9779 14.9334 11.2014 14.8154 11.3964C14.6975 11.5913 14.5284 11.7503 14.3266 11.8562C14.1248 11.962 13.8979 12.0107 13.6704 11.9969C13.4429 11.9831 13.2236 11.9074 13.036 11.778Z" />
</svg>
