<svg width="20" height="20" viewBox="0 0 20 20" fill="none" xmlns="http://www.w3.org/2000/svg">
<path d="M19.4344 5.8964L19.4346 5.9003C19.5019 7.09512 19.5006 8.2823 19.4993 9.49367C19.4991 9.66195 19.4989 9.8307 19.4989 10C19.4989 10.1898 19.4992 10.3789 19.4994 10.5673C19.5012 11.7581 19.5029 12.9246 19.4347 14.0988L19.4344 14.1036C19.3599 15.642 19.0166 16.9171 17.9667 17.9671C16.9192 19.0146 15.6415 19.3603 14.1033 19.4348L14.1033 19.4348L14.0994 19.435C12.9046 19.5022 11.7175 19.5009 10.5061 19.4996C10.3378 19.4994 10.1691 19.4993 9.99981 19.4993C9.83087 19.4993 9.66244 19.4994 9.49444 19.4996C8.28472 19.5009 7.09721 19.5022 5.90014 19.435L5.89629 19.4348C4.35788 19.3603 3.08282 19.017 2.0329 17.9671C0.985383 16.9195 0.639708 15.6418 0.565201 14.1036L0.565216 14.1036L0.564997 14.0997C0.497773 12.9048 0.499064 11.7157 0.500379 10.5054C0.500561 10.3374 0.500744 10.1689 0.500744 10C0.500744 9.83105 0.500561 9.6626 0.500378 9.49459C0.499064 8.28485 0.497774 7.09733 0.565 5.90025L0.565015 5.90025L0.565201 5.8964C0.639719 4.35795 0.982984 3.08287 2.0329 2.03293C3.08042 0.985389 4.3581 0.63971 5.89629 0.565202L5.89629 0.565218L5.90019 0.564999C7.09499 0.497776 8.28215 0.499064 9.4935 0.500378C9.66178 0.500561 9.83052 0.500744 9.99981 0.500744C10.1688 0.500744 10.3372 0.500561 10.5052 0.500378C11.7149 0.499064 12.9024 0.497774 14.0995 0.565001L14.0995 0.565016L14.1033 0.565202C15.6418 0.639721 16.9168 0.982991 17.9667 2.03293C19.0142 3.08047 19.3599 4.35817 19.4344 5.8964ZM7.16262 10C7.16262 8.43989 8.43726 7.16525 9.99731 7.16525C11.5574 7.16525 12.832 8.43989 12.832 10C12.832 11.5601 11.5574 12.8348 9.99731 12.8348C8.43726 12.8348 7.16262 11.5601 7.16262 10ZM18.3203 18.3206C19.4936 17.1473 19.8563 15.7289 19.9338 14.1278L0.0657868 5.87221C-0.00230062 7.08463 -0.000967564 8.28741 0.000371691 9.49578C0.000557835 9.66373 0.000744099 9.83179 0.000744099 10C0.000744099 10.1682 0.000557888 10.3363 0.000371769 10.5043C-0.000967512 11.7131 -0.00230195 12.9175 0.0657868 14.1278C0.143338 15.7289 0.508578 17.1498 1.67935 18.3206C2.85262 19.4939 4.27105 19.8567 5.8721 19.9342C7.0845 20.0023 8.28725 20.001 9.4956 19.9996C9.66355 19.9994 9.83161 19.9993 9.99981 19.9993C10.1684 19.9993 10.3367 19.9994 10.5049 19.9996C11.7149 20.001 12.9174 20.0023 14.1275 19.9342C15.7286 19.8567 17.1495 19.4914 18.3203 18.3206ZM4.36644 10C4.36644 13.1156 6.88179 15.631 9.99731 15.631C13.1128 15.631 15.6282 13.1156 15.6282 10C15.6282 6.88445 13.1128 4.36903 9.99731 4.36903C6.88179 4.36903 4.36644 6.88445 4.36644 10ZM13.64 4.65889C13.64 5.5979 14.3991 6.35708 15.3381 6.3572L16.5366 4.65889H17.0366C17.0366 4.65868 17.0366 4.65847 17.0366 4.65826C17.0363 3.71947 16.2772 2.96058 15.3383 2.96058C14.3992 2.96058 13.64 3.71981 13.64 4.65889Z" fill="white" stroke="#39447F"/>
</svg>
