<svg width="20" height="20" viewBox="0 0 20 20" fill="none" xmlns="http://www.w3.org/2000/svg">
<g clip-path="url(#clip0_10_260)">
<path d="M12.1969 7.47001C11.7731 7.47001 11.4594 7.57688 11.2138 7.71188C11.1744 7.57188 11.045 7.46938 10.8925 7.50001H9.02751C8.84314 7.46938 8.69376 7.61876 8.75064 7.81251V14.6875C8.69376 14.8625 8.84314 15.0125 9.02751 15H10.8925C11.0769 15.0125 11.2263 14.8625 11.2263 14.6781L11.2256 10.5231C11.225 10.5213 11.2181 10.3225 11.3438 10.1856C11.4444 10.0769 11.6175 10.0213 11.8569 10.0213C12.2556 10.0213 12.4331 10.1844 12.4994 10.5494V14.6781C12.4338 14.8625 12.5831 15.0125 12.7675 15H14.7331C14.9175 15.0125 15.0669 14.8625 15.0006 14.6781V10.4106C15.0663 8.24063 13.5206 7.47001 12.1969 7.47001ZM14.3988 14.375H13.1013V10.5494C13.1013 9.81126 12.6244 9.35376 11.8575 9.35376C11.4238 9.35376 11.0863 9.48126 10.8538 9.73251C10.5306 10.0825 10.5556 10.5263 10.625 10.625V14.375H9.36126V8.13751H10.5588V8.34751C10.5583 8.41007 10.5754 8.47149 10.6083 8.52473C10.6412 8.57797 10.6884 8.62086 10.7445 8.64847C10.8006 8.67608 10.8634 8.6873 10.9256 8.68082C10.9879 8.67435 11.047 8.65046 11.0963 8.61189L11.1838 8.54438C11.4369 8.34501 11.6988 8.13813 12.1975 8.13813C12.7138 8.13813 14.3994 8.30251 14.3994 10.4113L14.3988 14.375ZM6.87501 4.35376C6.17376 4.35376 5.60376 4.92376 5.60376 5.62501C5.60376 6.32626 6.17376 6.89626 6.87501 6.89626C7.57626 6.89626 8.14626 6.32626 8.14626 5.62501C8.14626 4.92376 7.57626 4.35376 6.87501 4.35376ZM6.87501 6.22876C6.54251 6.22876 6.27126 5.95751 6.27126 5.62501C6.27126 5.29251 6.54251 5.02126 6.87501 5.02126C7.20751 5.02126 7.47876 5.29251 7.47876 5.62501C7.47876 5.95751 7.20751 6.22876 6.87501 6.22876ZM7.76751 7.46938H5.91251C5.72814 7.46938 5.57876 7.61876 5.62501 7.81251V14.6875C5.57876 14.8625 5.72814 15.0125 5.91251 15H7.76751C7.95189 15.0125 8.10126 14.8625 8.10126 14.6781V7.80313C8.10126 7.71462 8.0661 7.62973 8.00351 7.56714C7.94092 7.50455 7.85603 7.46938 7.76751 7.46938ZM7.50001 14.375H6.24626V8.13751H7.50001V14.375Z" fill="#39447F"/>
<path d="M10 -0.0212402C4.47376 -0.0212402 -0.0212402 4.47376 -0.0212402 10C-0.0212402 15.5263 4.47376 20.0213 10 20.0213C15.5263 20.0213 20.0213 15.5263 20.0213 10C20.0213 4.47376 15.5263 -0.0212402 10 -0.0212402ZM10 19.3538C4.84251 19.3538 0.64626 15.1575 0.64626 10C0.64626 4.84251 4.84251 0.64626 10 0.64626C15.1575 0.64626 19.3538 4.84251 19.3538 10C19.3538 15.1575 15.1575 19.3538 10 19.3538Z" fill="#39447F"/>
</g>
<defs>
<clipPath id="clip0_10_260">
<rect width="20" height="20" rx="10" fill="white"/>
</clipPath>
</defs>
</svg>
