<svg width="18" height="19" viewBox="0 0 18 19" fill="none" xmlns="http://www.w3.org/2000/svg">
<g filter="url(#filter0_d_55_9)">
<path d="M8.75 0.25C5.98969 0.25 3.75 2.40993 3.75 5.07143C3.75 9.35714 8.75 15.25 8.75 15.25C8.75 15.25 13.75 9.35714 13.75 5.07143C13.75 2.40993 11.5103 0.25 8.75 0.25ZM8.75 7.75C8.35444 7.75 7.96776 7.62432 7.63886 7.38886C7.30996 7.1534 7.05362 6.81873 6.90224 6.42718C6.75087 6.03562 6.71126 5.60477 6.78843 5.18909C6.8656 4.77342 7.05608 4.3916 7.33579 4.09191C7.61549 3.79223 7.97186 3.58814 8.35982 3.50546C8.74778 3.42278 9.14991 3.46521 9.51537 3.6274C9.88082 3.78959 10.1932 4.06424 10.4129 4.41664C10.6327 4.76903 10.75 5.18333 10.75 5.60714C10.7494 6.17527 10.5385 6.71996 10.1636 7.12169C9.78863 7.52342 9.28026 7.74938 8.75 7.75Z" fill="black"/>
</g>
<defs>
<filter id="filter0_d_55_9" x="-0.25" y="0.25" width="18" height="23" filterUnits="userSpaceOnUse" color-interpolation-filters="sRGB">
<feFlood flood-opacity="0" result="BackgroundImageFix"/>
<feColorMatrix in="SourceAlpha" type="matrix" values="0 0 0 0 0 0 0 0 0 0 0 0 0 0 0 0 0 0 127 0" result="hardAlpha"/>
<feOffset dy="4"/>
<feGaussianBlur stdDeviation="2"/>
<feComposite in2="hardAlpha" operator="out"/>
<feColorMatrix type="matrix" values="0 0 0 0 0 0 0 0 0 0 0 0 0 0 0 0 0 0 0.25 0"/>
<feBlend mode="normal" in2="BackgroundImageFix" result="effect1_dropShadow_55_9"/>
<feBlend mode="normal" in="SourceGraphic" in2="effect1_dropShadow_55_9" result="shape"/>
</filter>
</defs>
</svg>
