<svg width="20" height="20" viewBox="0 0 20 20" fill="none" xmlns="http://www.w3.org/2000/svg">
<g clip-path="url(#clip0_10_264)">
<path d="M11.4493 8.75191L18.8348 19.5H14.2206L9.03397 11.9517L8.66627 11.4166L8.24283 11.9088L1.71214 19.5H1.30474L8.23434 11.4455L8.48546 11.1536L8.2674 10.8362L1.16521 0.5H5.7794L10.6829 7.63628L10.9113 7.96875H10.9112L11.4493 8.75191ZM18.0575 0.5L11.6324 7.96875H11.225L11.474 7.6792L17.65 0.5H18.0575ZM8.31318 10.3965L8.31321 10.3965L8.99718 11.3747V11.3751L9.0874 11.5041L14.3601 19.0459L14.5093 19.2594H14.7698H17.4214H18.381L17.8312 18.4729L11.3698 9.2307L10.5957 8.12353L10.5957 8.12351L5.62526 1.01322L5.476 0.799688H5.21547H2.56359H1.60396L2.1538 1.58617L8.31318 10.3965Z" fill="#39447F" stroke="#39447F"/>
</g>
<defs>
<clipPath id="clip0_10_264">
<rect width="20" height="20" rx="10" fill="white"/>
</clipPath>
</defs>
</svg>
