<svg width="22" height="20" viewBox="0 0 22 20" fill="white" xmlns="http://www.w3.org/2000/svg">
<g clip-path="url(#clip0_50_7)">
<path d="M1.375 7.67969C1.375 6.63747 1.83042 5.63794 2.64108 4.90098C3.45174 4.16402 4.55122 3.75 5.69766 3.75H12.6139C13.7604 3.75 14.8599 4.16402 15.6705 4.90098C16.4812 5.63794 16.9366 6.63747 16.9366 7.67969V15.5391C16.9366 16.5813 16.4812 17.5808 15.6705 18.3178C14.8599 19.0548 13.7604 19.4688 12.6139 19.4688H5.69766C4.55122 19.4688 3.45174 19.0548 2.64108 18.3178C1.83042 17.5808 1.375 16.5813 1.375 15.5391V7.67969ZM22.186 17.5479L18.4927 15.231C18.5158 15.0843 18.5273 14.936 18.5273 14.7862V8.43577C18.5273 8.28487 18.5158 8.13659 18.4927 7.99093L22.186 5.67398C22.5103 5.47051 22.8896 5.35152 23.283 5.32985C23.6763 5.30819 24.0686 5.38468 24.4176 5.55107C24.7665 5.71745 25.0588 5.96739 25.2628 6.27385C25.4668 6.58032 25.5748 6.93166 25.575 7.28987V15.9321C25.5748 16.2903 25.4668 16.6416 25.2628 16.9481C25.0588 17.2545 24.7665 17.5045 24.4176 17.6709C24.0686 17.8372 23.6763 17.9137 23.283 17.8921C22.8896 17.8704 22.5103 17.7514 22.186 17.5479Z" fill="white"/>
</g>
<defs>
<clipPath id="clip0_50_7">
<rect width="22" height="20" fill="white"/>
</clipPath>
</defs>
</svg>
